<svg xmlns="http://www.w3.org/2000/svg" width="309" height="180" fill="none"><path stroke="#CCC" stroke-dasharray="3.15 3.15" stroke-linecap="round" stroke-width=".525" d="M.589 50.902h308.39"/><path fill="url(#a)" d="M32.505 134.659C19.503 131.895 5.417 135.811 0 138.114V157h199V75l-16.167 6.368a33.058 33.058 0 0 1-16.755 1.973l-9.26-1.312a33.06 33.06 0 0 0-12.823.702l-31.968 8.168c-10.061 8.061-32.273 26.141-40.631 33.971-10.449 12.092-22.638 13.244-38.89 9.789Z"/><path stroke="#CCC" stroke-linecap="round" d="M199.035 27.29v126.976"/><path stroke="url(#b)" stroke-linecap="round" stroke-width="3" d="M.484 138.789c5.396-2.313 19.426-6.244 32.377-3.469 16.189 3.469 28.33 2.313 38.737-9.829 6.454-6.095 21.2-18.375 32.172-27.359 5.458-4.468 11.834-7.663 18.664-9.422l18.26-4.703a49.333 49.333 0 0 1 19.281-1.064l.842.12a49.333 49.333 0 0 0 26.409-3.492l45.51-19.505a49.344 49.344 0 0 0 12.004-7.325l17.081-14.125a49.326 49.326 0 0 1 16.815-9.097L302.863 22"/><circle cx="199" cy="74" r="5.738" fill="#4686FE" stroke="#659BFF" stroke-width=".525"/><circle cx="199" cy="74" r="13.738" fill="#659BFF" stroke="#659BFF" stroke-width=".525" opacity=".1"/><defs><linearGradient id="a" x1="87.818" x2="99.317" y1="78.252" y2="157.027" gradientUnits="userSpaceOnUse"><stop stop-color="#659BFF"/><stop offset="1" stop-color="#D9D9D9" stop-opacity="0"/></linearGradient><linearGradient id="b" x1="151.674" x2="151.674" y1="22" y2="138.789" gradientUnits="userSpaceOnUse"><stop stop-color="#4686FE"/><stop offset="1" stop-color="#92B8FF"/></linearGradient></defs></svg>