<svg xmlns="http://www.w3.org/2000/svg" width="309" height="180" fill="none"><rect width="262" height="115" x="23.5" y=".5" fill="#fff" rx="23.5"/><rect width="262" height="115" x="23.5" y=".5" stroke="#EEE" rx="23.5"/><path fill="#659BFF" fill-opacity=".1" d="M111.336 58.23c0 9.85-7.986 17.836-17.836 17.836-9.85 0-17.836-7.985-17.836-17.836 0-9.85 7.986-17.835 17.836-17.835 9.85 0 17.836 7.985 17.836 17.835Z"/><path fill="#E9ECF1" d="M105.82 93.706c-19.593 6.804-40.991-3.563-47.796-23.155-6.804-19.593 3.563-40.992 23.155-47.796 19.593-6.804 40.991 3.563 47.796 23.155 6.804 19.593-3.563 40.991-23.155 47.796ZM83.181 28.519C66.772 34.22 58.09 52.14 63.79 68.55c5.698 16.409 23.62 25.09 40.029 19.392 16.409-5.698 25.091-23.62 19.392-40.029-5.698-16.409-23.62-25.091-40.029-19.392Z"/><path fill="#FEBE46" d="M84.454 91.526c-.441 1.626.517 3.316 2.174 3.624a37.55 37.55 0 0 0 38.102-16.063 37.547 37.547 0 0 0-1.527-43.835A37.544 37.544 0 0 0 99.562 21.17c-1.663-.272-3.138.992-3.275 2.671-.136 1.68 1.12 3.137 2.778 3.435a31.457 31.457 0 0 1 24.965 23.397 31.46 31.46 0 0 1-4.375 25.026 31.444 31.444 0 0 1-21.44 13.629c-3.317.502-6.687.47-9.982-.09-1.662-.281-3.337.663-3.779 2.289Z"/><path fill="#4686FE" d="M99.904 49.383a.617.617 0 0 0-.536-.114l-10 2.5a.625.625 0 0 0-.473.606v8.602a2.812 2.812 0 1 0 1.25 2.335v-7.324l8.75-2.187v4.675a2.812 2.812 0 1 0 1.25 2.336V49.875a.632.632 0 0 0-.241-.492Z"/><path fill="#000" d="M161.469 52.816V34.633h1.152v18.183h-1.152Zm.576-1.582c-1.087 0-2.031-.169-2.832-.508-.794-.345-1.416-.836-1.865-1.474-.449-.638-.7-1.397-.752-2.276h2.207c.045.528.215.967.508 1.319.299.345.687.602 1.162.771.475.17.996.254 1.562.254.619 0 1.172-.097 1.66-.293.489-.195.87-.468 1.143-.82.28-.358.42-.775.42-1.25 0-.43-.124-.781-.371-1.055-.241-.273-.57-.498-.986-.674a9.601 9.601 0 0 0-1.407-.478l-1.709-.469c-1.172-.312-2.096-.778-2.773-1.396-.677-.625-1.016-1.442-1.016-2.451 0-.84.225-1.573.674-2.198.456-.625 1.071-1.11 1.846-1.455.781-.351 1.657-.527 2.627-.527.989 0 1.858.176 2.607.527.755.345 1.351.82 1.787 1.426.443.599.674 1.286.694 2.06h-2.129c-.078-.67-.391-1.19-.938-1.562-.54-.371-1.23-.557-2.07-.557-.586 0-1.1.095-1.543.283-.436.183-.775.437-1.016.762-.234.326-.351.7-.351 1.123 0 .456.14.827.42 1.114a3.18 3.18 0 0 0 1.035.683c.41.163.804.296 1.181.4l1.416.381c.463.118.938.274 1.426.47.489.195.941.452 1.358.77.423.313.761.704 1.015 1.172.261.463.391 1.023.391 1.68a3.9 3.9 0 0 1-.635 2.188c-.423.638-1.035 1.142-1.836 1.513-.801.365-1.771.547-2.91.547Zm11.865-.039c-1.015 0-1.914-.176-2.695-.527-.775-.352-1.383-.834-1.826-1.445a3.573 3.573 0 0 1-.655-2.11c0-.605.127-1.168.381-1.69a3.75 3.75 0 0 1 1.055-1.298 3.343 3.343 0 0 1 1.494-.664v-.088a2.993 2.993 0 0 1-1.748-1.162 3.453 3.453 0 0 1-.654-2.07c0-.75.198-1.416.596-2.002.403-.586.953-1.045 1.65-1.377.703-.339 1.504-.508 2.402-.508.886 0 1.677.17 2.373.508.703.332 1.254.79 1.651 1.377.403.585.605 1.253.605 2.002 0 .774-.221 1.464-.664 2.07a2.942 2.942 0 0 1-1.719 1.162v.088a3.342 3.342 0 0 1 1.485.664c.442.345.794.778 1.054 1.299.261.52.391 1.084.391 1.69 0 .787-.221 1.49-.664 2.109-.443.611-1.055 1.093-1.836 1.445-.775.351-1.667.527-2.676.527Zm0-1.797c.599 0 1.12-.097 1.563-.293a2.376 2.376 0 0 0 1.025-.85c.241-.364.361-.787.361-1.269 0-.508-.13-.953-.39-1.338a2.606 2.606 0 0 0-1.045-.918c-.443-.227-.947-.341-1.514-.341-.573 0-1.084.11-1.533.332a2.607 2.607 0 0 0-1.045.918c-.254.39-.381.84-.381 1.347 0 .482.121.905.362 1.27a2.37 2.37 0 0 0 1.025.85c.443.195.967.292 1.572.292Zm0-6.758c.482 0 .908-.097 1.28-.292a2.24 2.24 0 0 0 .888-.811c.222-.345.332-.749.332-1.21 0-.457-.107-.854-.322-1.192a2.113 2.113 0 0 0-.879-.791c-.371-.19-.804-.284-1.299-.284-.501 0-.94.095-1.318.284a2.113 2.113 0 0 0-.879.79c-.208.34-.312.736-.312 1.192 0 .462.107.866.322 1.211.215.345.508.615.879.81.377.196.813.294 1.308.294Zm11.66 8.555c-.891 0-1.692-.17-2.402-.508a4.393 4.393 0 0 1-1.689-1.416 3.733 3.733 0 0 1-.674-2.06h2.129c.052.618.328 1.13.83 1.533.501.404 1.103.605 1.806.605.56 0 1.055-.13 1.485-.39a2.8 2.8 0 0 0 1.015-1.065c.248-.455.372-.976.372-1.562a3.21 3.21 0 0 0-.381-1.572 2.823 2.823 0 0 0-1.055-1.104c-.443-.267-.954-.4-1.533-.4-.443 0-.886.078-1.328.234-.443.15-.801.345-1.075.586l-2.021-.293.82-7.334h7.998v1.885h-6.162l-.459 4.072h.078c.28-.28.655-.508 1.123-.683a4.251 4.251 0 0 1 1.534-.274c.885 0 1.673.212 2.363.635a4.44 4.44 0 0 1 1.64 1.719c.398.722.596 1.552.596 2.49 0 .944-.215 1.787-.644 2.53a4.652 4.652 0 0 1-1.778 1.737c-.748.424-1.611.635-2.588.635Zm7.188-.195 6.348-12.559v-.107h-7.344v-1.885h9.629v1.963L195.053 51h-2.295Z"/><path fill="#6D6D6D" d="M157.031 81V69.36h7.032v1.25h-5.625v3.89h5.25v1.25h-5.25v4h5.703V81h-7.11ZM167 75.75V81h-1.328v-8.734h1.281v1.374h.125c.203-.447.513-.807.93-1.078.417-.27.956-.406 1.617-.406.589 0 1.104.12 1.547.36.443.24.786.604 1.031 1.093.25.485.375 1.1.375 1.844V81h-1.328v-5.453c0-.682-.18-1.216-.539-1.602-.359-.39-.849-.586-1.469-.586-.427 0-.81.094-1.148.282a2.046 2.046 0 0 0-.805.812c-.193.354-.289.787-.289 1.297Zm11.078-3.484v1.14h-4.515v-1.14h4.515Zm-3.203-2.079h1.328V78.5c0 .453.094.786.281 1 .188.208.485.312.891.312.089 0 .18-.005.274-.015a4.37 4.37 0 0 0 .32-.047l.281 1.203a2.226 2.226 0 0 1-.461.11 3.092 3.092 0 0 1-.539.046c-.703 0-1.276-.208-1.719-.625-.437-.416-.656-.958-.656-1.625v-8.672Zm8.047 11c-.839 0-1.565-.187-2.18-.562a3.71 3.71 0 0 1-1.406-1.57c-.328-.678-.492-1.461-.492-2.352 0-.896.161-1.685.484-2.367.323-.682.776-1.216 1.36-1.602.588-.385 1.276-.578 2.062-.578.453 0 .904.076 1.352.227.448.15.854.396 1.218.734.37.339.664.787.883 1.344.219.557.328 1.242.328 2.055v.578h-6.734v-1.157h6.008l-.617.438c0-.583-.092-1.102-.274-1.555a2.364 2.364 0 0 0-.82-1.07c-.36-.26-.807-.39-1.344-.39-.536 0-.997.132-1.383.398-.38.26-.672.601-.875 1.023a3.094 3.094 0 0 0-.304 1.36v.765c0 .662.114 1.221.343 1.68.23.458.55.807.961 1.047.412.234.888.351 1.43.351a2.9 2.9 0 0 0 .953-.148c.287-.104.534-.258.742-.461.209-.208.367-.464.477-.766l1.297.375a2.86 2.86 0 0 1-.688 1.157 3.322 3.322 0 0 1-1.187.773 4.41 4.41 0 0 1-1.594.273Zm4.875-.187v-8.734h1.281v1.328h.094a2.09 2.09 0 0 1 .867-1.047 2.56 2.56 0 0 1 1.414-.406c.099 0 .222.002.367.007.146 0 .258.003.336.008v1.36a4.64 4.64 0 0 0-.828-.079 2.38 2.38 0 0 0-1.133.266 2.05 2.05 0 0 0-.789.727 1.988 1.988 0 0 0-.281 1.054V81h-1.328Zm9.531-8.734v1.14h-4.515v-1.14h4.515Zm-3.203-2.079h1.328V78.5c0 .453.094.786.281 1 .188.208.485.312.891.312.089 0 .18-.005.274-.015a4.37 4.37 0 0 0 .32-.047l.281 1.203a2.226 2.226 0 0 1-.461.11 3.092 3.092 0 0 1-.539.046c-.703 0-1.276-.208-1.719-.625-.437-.416-.656-.958-.656-1.625v-8.672Zm7.047 11.016a3.567 3.567 0 0 1-1.508-.313 2.589 2.589 0 0 1-1.078-.921c-.266-.401-.398-.886-.398-1.453 0-.5.099-.904.296-1.211.198-.313.461-.558.79-.735a4.144 4.144 0 0 1 1.093-.406c.401-.089.805-.159 1.211-.211.531-.068.961-.12 1.289-.156.334-.037.576-.1.727-.188.156-.088.234-.24.234-.453v-.047c0-.557-.153-.99-.461-1.297-.302-.312-.763-.468-1.383-.468-.635 0-1.135.14-1.5.422-.364.276-.619.572-.765.89l-1.281-.453c.229-.531.533-.945.914-1.242a3.526 3.526 0 0 1 1.25-.625c.453-.12.898-.18 1.336-.18.281 0 .604.034.968.102.365.062.719.198 1.063.406.349.203.635.513.859.93.229.411.344.963.344 1.656V81h-1.344v-1.188h-.062a2.37 2.37 0 0 1-.453.61 2.784 2.784 0 0 1-.852.555c-.349.15-.779.226-1.289.226Zm.203-1.203c.531 0 .979-.104 1.344-.313.364-.208.64-.476.828-.804a2.1 2.1 0 0 0 .281-1.04V76.61c-.057.068-.182.13-.375.188a6.396 6.396 0 0 1-.656.14c-.245.042-.484.079-.719.11l-.562.062a5.064 5.064 0 0 0-.977.227 1.727 1.727 0 0 0-.734.445c-.182.198-.274.469-.274.813 0 .463.172.815.516 1.054.349.235.792.352 1.328.352Zm5.516 1v-8.734h1.328V81h-1.328Zm.672-10.188a.943.943 0 0 1-.672-.265.848.848 0 0 1-.282-.64c0-.25.094-.464.282-.641a.943.943 0 0 1 .672-.266c.26 0 .484.088.671.266.188.177.282.39.282.64s-.094.464-.282.64a.942.942 0 0 1-.671.266Zm3.703 4.938V81h-1.328v-8.734h1.281v1.374h.125c.203-.447.513-.807.93-1.078.416-.27.955-.406 1.617-.406.588 0 1.104.12 1.547.36.442.24.786.604 1.031 1.093.25.485.375 1.1.375 1.844V81h-1.328v-5.453c0-.682-.18-1.216-.539-1.602-.36-.39-.849-.586-1.469-.586-.427 0-.81.094-1.149.282a2.05 2.05 0 0 0-.804.812c-.193.354-.289.787-.289 1.297Zm7.297 5.25v-8.734h1.281v1.374h.125a2.21 2.21 0 0 1 .883-1.093c.406-.26.893-.39 1.461-.39.573 0 1.049.13 1.429.39.386.26.685.625.899 1.094h.093a2.62 2.62 0 0 1 1.008-1.079c.448-.27.982-.406 1.602-.406.781 0 1.422.245 1.922.734.5.485.75 1.24.75 2.266V81h-1.344v-5.844c0-.646-.177-1.107-.531-1.383a1.974 1.974 0 0 0-1.25-.414c-.61 0-1.084.188-1.422.563-.333.37-.5.833-.5 1.39V81h-1.375v-5.984c0-.495-.159-.894-.477-1.196-.317-.307-.731-.46-1.242-.46a1.82 1.82 0 0 0-.976.28 2.138 2.138 0 0 0-.735.774 2.296 2.296 0 0 0-.273 1.133V81h-1.328Zm16.828.187c-.839 0-1.565-.187-2.18-.562a3.71 3.71 0 0 1-1.406-1.57c-.328-.678-.492-1.461-.492-2.352 0-.896.161-1.685.484-2.367.323-.682.776-1.216 1.359-1.602.589-.385 1.276-.578 2.063-.578a4.2 4.2 0 0 1 1.351.227 3.35 3.35 0 0 1 1.219.734c.37.339.664.787.883 1.344.219.557.328 1.242.328 2.055v.578h-6.734v-1.157h6.008l-.618.438c0-.583-.091-1.102-.273-1.555a2.364 2.364 0 0 0-.82-1.07c-.36-.26-.808-.39-1.344-.39-.537 0-.998.132-1.383.398-.38.26-.672.601-.875 1.023a3.094 3.094 0 0 0-.305 1.36v.765c0 .662.115 1.221.344 1.68.229.458.55.807.961 1.047.412.234.888.351 1.43.351.349 0 .666-.05.953-.148.286-.104.534-.258.742-.461.208-.208.367-.464.477-.766l1.296.375a2.847 2.847 0 0 1-.687 1.157 3.335 3.335 0 0 1-1.188.773 4.404 4.404 0 0 1-1.593.273Zm6.203-5.437V81h-1.328v-8.734h1.281v1.374h.125c.203-.447.513-.807.93-1.078.416-.27.955-.406 1.617-.406.588 0 1.104.12 1.547.36.442.24.786.604 1.031 1.093.25.485.375 1.1.375 1.844V81h-1.328v-5.453c0-.682-.18-1.216-.539-1.602-.36-.39-.849-.586-1.469-.586-.427 0-.81.094-1.148.282a2.046 2.046 0 0 0-.805.812c-.193.354-.289.787-.289 1.297Zm11.078-3.484v1.14h-4.516v-1.14h4.516Zm-3.203-2.079h1.328V78.5c0 .453.094.786.281 1 .188.208.485.312.891.312.088 0 .18-.005.273-.015a4.09 4.09 0 0 0 .321-.047l.281 1.203a2.226 2.226 0 0 1-.461.11 3.092 3.092 0 0 1-.539.046c-.703 0-1.276-.208-1.719-.625-.437-.416-.656-.958-.656-1.625v-8.672Z"/><g filter="url(#a)"><rect width="309.105" height="140.548" y="39.226" fill="#fff" rx="24" shape-rendering="crispEdges"/><rect width="308.105" height="139.548" x=".5" y="39.726" stroke="#EEE" rx="23.5" shape-rendering="crispEdges"/><path fill="#659BFF" fill-opacity=".1" d="M104.601 109.781c0 11.995-9.724 21.719-21.72 21.719-11.994 0-21.718-9.724-21.718-21.719 0-11.996 9.724-21.72 21.719-21.72 11.995 0 21.719 9.724 21.719 21.72Z"/><path fill="#E9ECF1" d="M97.885 152.98c-23.859 8.286-49.917-4.338-58.203-28.196-8.286-23.859 4.338-49.917 28.197-58.203 23.858-8.286 49.917 4.338 58.202 28.197 8.286 23.858-4.338 49.917-28.196 58.202ZM70.317 73.6c-19.982 6.94-30.555 28.764-23.615 48.746 6.94 19.982 28.763 30.554 48.745 23.615 19.982-6.94 30.554-28.764 23.615-48.745-6.94-19.982-28.763-30.555-48.745-23.615Z"/><path fill="#4686FE" d="M71.867 150.326c-.538 1.98.63 4.038 2.647 4.413a45.734 45.734 0 0 0 32.901-6.365 45.723 45.723 0 0 0 20.515-30.718 45.727 45.727 0 0 0-23.259-48.082 45.729 45.729 0 0 0-14.407-4.924c-2.025-.332-3.822 1.207-3.987 3.253-.166 2.045 1.363 3.819 3.382 4.182a38.3 38.3 0 0 1-13.19 75.455c-2.024-.344-4.064.806-4.602 2.786Z"/><path fill="#4686FE" d="M90.68 99.007a.75.75 0 0 0-.652-.138l-12.177 3.044a.759.759 0 0 0-.577.737v10.475a3.422 3.422 0 0 0-4.203.31 3.427 3.427 0 0 0-.72 4.153 3.421 3.421 0 0 0 3.855 1.706 3.421 3.421 0 0 0 2.59-3.325v-8.919l10.656-2.664v5.694a3.423 3.423 0 0 0-4.922 4.464 3.426 3.426 0 0 0 6.444-1.619v-13.32a.76.76 0 0 0-.293-.598Z"/><path fill="#000" d="M160.425 103.276V81.134h1.404v22.142h-1.404Zm.702-1.926c-1.324 0-2.474-.206-3.449-.618-.967-.421-1.724-1.02-2.271-1.796-.547-.777-.852-1.7-.916-2.77h2.688c.055.641.261 1.176.618 1.605.365.42.837.733 1.415.939a5.64 5.64 0 0 0 1.903.31c.753 0 1.427-.12 2.022-.358.594-.237 1.058-.57 1.391-.999a2.4 2.4 0 0 0 .511-1.522c0-.523-.15-.951-.452-1.284-.293-.333-.693-.606-1.201-.82a11.66 11.66 0 0 0-1.712-.583l-2.081-.571c-1.427-.38-2.553-.947-3.378-1.7-.824-.762-1.236-1.757-1.236-2.986 0-1.022.273-1.914.82-2.675.555-.761 1.304-1.352 2.248-1.772.951-.428 2.018-.642 3.199-.642 1.205 0 2.263.214 3.175.642.92.42 1.645.999 2.176 1.736.539.73.821 1.566.845 2.51h-2.593c-.095-.817-.476-1.452-1.142-1.903-.658-.452-1.498-.678-2.521-.678-.713 0-1.339.115-1.879.345-.531.221-.943.53-1.236.927a2.277 2.277 0 0 0-.428 1.368c0 .555.17 1.007.511 1.355a3.89 3.89 0 0 0 1.26.833c.5.198.98.36 1.439.487l1.725.464a13.88 13.88 0 0 1 1.736.571 6.942 6.942 0 0 1 1.653.94c.515.38.927.856 1.237 1.427.317.562.475 1.244.475 2.045 0 .991-.257 1.879-.773 2.664-.515.777-1.26 1.391-2.235 1.843-.975.444-2.157.666-3.544.666Zm14.877-18.004v17.719h-2.64V86.033h-.119l-4.21 2.77v-2.568l4.4-2.89h2.569Zm2.402 22.107 1.046-6.933h2.783l-1.962 6.933h-1.867Zm6.897-4.388v-1.927l5.994-6.231a31.032 31.032 0 0 0 1.57-1.76c.42-.516.733-1.003.939-1.463.214-.46.321-.947.321-1.463 0-.594-.139-1.106-.416-1.534a2.73 2.73 0 0 0-1.13-.987c-.475-.23-1.015-.345-1.617-.345-.634 0-1.185.131-1.653.393a2.688 2.688 0 0 0-1.094 1.094c-.254.468-.381 1.019-.381 1.653h-2.545c0-1.079.246-2.022.738-2.83a5.084 5.084 0 0 1 2.045-1.88c.872-.451 1.855-.677 2.949-.677 1.118 0 2.101.222 2.95.666.848.444 1.51 1.046 1.986 1.807.475.753.713 1.606.713 2.557 0 .658-.123 1.3-.369 1.926-.237.627-.662 1.328-1.272 2.105-.603.77-1.443 1.697-2.521 2.783l-3.52 3.687v.142h7.968v2.284h-11.655Zm20.086.237c-1.197 0-2.26-.202-3.187-.606-.928-.412-1.661-.983-2.2-1.712-.539-.73-.825-1.574-.856-2.533h2.687c.04.523.218.975.535 1.355.317.38.734.678 1.249.892.523.206 1.106.31 1.748.31.698 0 1.316-.124 1.855-.37.539-.245.96-.582 1.261-1.01.309-.436.464-.94.464-1.51 0-.595-.151-1.118-.452-1.57-.302-.46-.742-.817-1.32-1.07-.579-.254-1.277-.381-2.093-.381h-1.511v-2.188h1.511c.65 0 1.225-.12 1.724-.357.5-.238.888-.567 1.166-.987.285-.42.428-.916.428-1.486 0-.547-.123-1.023-.369-1.427a2.455 2.455 0 0 0-1.035-.952c-.444-.23-.967-.345-1.569-.345-.579 0-1.118.103-1.618.31a3.062 3.062 0 0 0-1.225.891c-.309.38-.471.845-.487 1.392h-2.581c.024-.96.302-1.8.833-2.521.539-.73 1.252-1.297 2.14-1.701.896-.412 1.887-.618 2.973-.618 1.134 0 2.113.222 2.938.666.832.436 1.474 1.022 1.926 1.76a4.45 4.45 0 0 1 .678 2.39c0 1.007-.278 1.855-.832 2.545-.555.682-1.297 1.145-2.224 1.391v.131c1.173.182 2.081.65 2.723 1.403.65.753.975 1.689.975 2.807 0 .975-.273 1.847-.82 2.616-.54.769-1.281 1.376-2.224 1.819-.936.444-2.006.666-3.211.666Zm14.354 0c-1.087 0-2.062-.206-2.926-.618-.856-.42-1.542-.995-2.057-1.724a4.56 4.56 0 0 1-.821-2.51h2.593c.063.754.4 1.376 1.011 1.867.61.492 1.343.738 2.2.738.681 0 1.284-.159 1.807-.476a3.41 3.41 0 0 0 1.237-1.296c.301-.555.452-1.19.452-1.903 0-.713-.155-1.352-.464-1.914a3.432 3.432 0 0 0-1.284-1.344c-.539-.325-1.162-.488-1.867-.488-.539 0-1.079.095-1.618.286-.539.182-.975.42-1.308.713l-2.461-.357.999-8.93h9.739v2.295h-7.504l-.559 4.959h.095c.341-.341.797-.619 1.368-.833a5.17 5.17 0 0 1 1.867-.333c1.078 0 2.038.258 2.878.773a5.403 5.403 0 0 1 1.998 2.093c.483.88.725 1.891.725 3.033 0 1.15-.261 2.176-.785 3.08a5.657 5.657 0 0 1-2.164 2.116c-.912.516-1.962.773-3.151.773Z"/><path fill="#6D6D6D" d="M155.022 137.936V123.76h8.562v1.522h-6.85v4.738h6.393v1.522h-6.393v4.871h6.945v1.523h-8.657Zm12.139-6.394v6.394h-1.617v-10.637h1.56v1.675h.152a3.028 3.028 0 0 1 1.132-1.313c.508-.33 1.164-.495 1.969-.495.717 0 1.345.146 1.884.438.539.292.958.735 1.256 1.332.304.59.457 1.338.457 2.245v6.755h-1.618v-6.641c0-.831-.219-1.481-.656-1.95-.438-.476-1.034-.714-1.789-.714-.52 0-.986.114-1.398.343a2.494 2.494 0 0 0-.98.989c-.235.431-.352.958-.352 1.579Zm13.49-4.243v1.389h-5.499v-1.389h5.499Zm-3.9-2.53h1.617v10.122c0 .552.114.958.342 1.218.229.254.59.38 1.085.38.108 0 .219-.006.333-.019.12-.012.25-.031.39-.057l.342 1.465a2.66 2.66 0 0 1-.561.134 3.765 3.765 0 0 1-.656.057c-.856 0-1.554-.254-2.093-.761-.533-.508-.799-1.167-.799-1.979v-10.56Zm9.799 13.395c-1.022 0-1.906-.228-2.655-.685a4.516 4.516 0 0 1-1.712-1.912c-.4-.825-.599-1.779-.599-2.864 0-1.091.196-2.052.589-2.883.394-.83.945-1.481 1.656-1.95.716-.469 1.554-.704 2.511-.704.552 0 1.101.092 1.646.276.546.184 1.04.482 1.484.894.451.413.809.958 1.075 1.637.267.678.4 1.512.4 2.502v.704h-8.201v-1.408h7.316l-.751.532c0-.71-.111-1.341-.333-1.893-.222-.552-.555-.986-.999-1.303-.438-.317-.983-.476-1.637-.476-.653 0-1.214.162-1.684.485a3.13 3.13 0 0 0-1.065 1.247 3.767 3.767 0 0 0-.371 1.655v.932c0 .806.139 1.488.418 2.046.28.558.67.983 1.171 1.275.501.285 1.081.428 1.741.428.425 0 .811-.06 1.16-.181a2.51 2.51 0 0 0 .904-.561c.254-.254.447-.565.58-.933l1.58.457a3.468 3.468 0 0 1-.838 1.408c-.386.4-.868.714-1.446.942-.577.222-1.224.333-1.94.333Zm5.936-.228v-10.637h1.56v1.618h.115c.196-.527.548-.952 1.056-1.275a3.114 3.114 0 0 1 1.721-.495c.121 0 .27.003.448.01.177 0 .314.003.409.009v1.656a5.577 5.577 0 0 0-1.009-.096c-.513 0-.973.108-1.379.324a2.48 2.48 0 0 0-.961.885 2.418 2.418 0 0 0-.343 1.284v6.717h-1.617Zm11.607-10.637v1.389h-5.499v-1.389h5.499Zm-3.901-2.53h1.617v10.122c0 .552.115.958.343 1.218.228.254.59.38 1.084.38.108 0 .219-.006.333-.019.121-.012.251-.031.391-.057l.342 1.465a2.66 2.66 0 0 1-.561.134 3.785 3.785 0 0 1-.657.057c-.856 0-1.554-.254-2.093-.761-.532-.508-.799-1.167-.799-1.979v-10.56Zm8.581 13.414a4.34 4.34 0 0 1-1.836-.381 3.153 3.153 0 0 1-1.313-1.122c-.323-.489-.485-1.078-.485-1.77 0-.609.121-1.1.362-1.474.241-.381.561-.679.961-.895a5.022 5.022 0 0 1 1.332-.494c.488-.108.979-.194 1.474-.257.647-.083 1.17-.146 1.57-.191.406-.044.701-.12.885-.228.19-.108.285-.292.285-.552v-.057c0-.678-.187-1.205-.561-1.579-.368-.381-.929-.571-1.684-.571-.774 0-1.383.171-1.827.514-.444.336-.755.698-.932 1.085l-1.56-.552c.279-.647.65-1.151 1.113-1.513a4.299 4.299 0 0 1 1.522-.761 6.344 6.344 0 0 1 1.627-.219 6.5 6.5 0 0 1 1.179.124c.444.076.876.241 1.294.495.425.247.774.624 1.047 1.132.279.501.418 1.173.418 2.017v7.002h-1.636v-1.447h-.076c-.108.229-.292.476-.552.743-.26.26-.606.485-1.037.675-.425.184-.948.276-1.57.276Zm.248-1.465c.647 0 1.192-.127 1.636-.381a2.63 2.63 0 0 0 1.009-.98c.228-.406.342-.827.342-1.265v-1.503c-.07.082-.222.158-.457.228a7.44 7.44 0 0 1-.799.171 24 24 0 0 1-.875.134l-.685.076a6.137 6.137 0 0 0-1.189.276 2.1 2.1 0 0 0-.894.542c-.222.241-.333.571-.333.989 0 .565.209.993.627 1.285.425.285.964.428 1.618.428Zm6.716 1.218v-10.637h1.618v10.637h-1.618Zm.819-12.406a1.15 1.15 0 0 1-.819-.324 1.033 1.033 0 0 1-.342-.78c0-.304.114-.564.342-.78a1.15 1.15 0 0 1 .819-.323c.317 0 .589.107.818.323.228.216.342.476.342.78 0 .305-.114.565-.342.78a1.15 1.15 0 0 1-.818.324Zm4.509 6.012v6.394h-1.617v-10.637h1.56v1.675h.152a3.028 3.028 0 0 1 1.132-1.313c.508-.33 1.164-.495 1.97-.495.716 0 1.344.146 1.883.438.539.292.958.735 1.256 1.332.304.59.457 1.338.457 2.245v6.755h-1.618v-6.641c0-.831-.218-1.481-.656-1.95-.438-.476-1.034-.714-1.789-.714-.52 0-.986.114-1.398.343a2.494 2.494 0 0 0-.98.989c-.235.431-.352.958-.352 1.579Zm8.886 6.394v-10.637h1.56v1.675h.152a2.695 2.695 0 0 1 1.075-1.332c.495-.317 1.088-.476 1.779-.476.698 0 1.278.159 1.741.476.47.317.834.761 1.094 1.332h.114c.28-.552.689-.99 1.228-1.313.545-.33 1.195-.495 1.95-.495.951 0 1.731.298 2.34.894.609.59.914 1.51.914 2.759v7.117h-1.637v-7.117c0-.786-.215-1.347-.647-1.684-.431-.336-.938-.504-1.522-.504-.742 0-1.319.229-1.731.685-.406.451-.609 1.015-.609 1.694v6.926h-1.675v-7.288c0-.602-.193-1.088-.58-1.455-.387-.375-.891-.562-1.513-.562-.424 0-.821.114-1.189.343a2.597 2.597 0 0 0-.894.942c-.222.399-.333.859-.333 1.379v6.641h-1.617Zm20.492.228c-1.021 0-1.906-.228-2.654-.685a4.525 4.525 0 0 1-1.713-1.912c-.399-.825-.599-1.779-.599-2.864 0-1.091.197-2.052.59-2.883.393-.83.945-1.481 1.655-1.95.717-.469 1.554-.704 2.512-.704.552 0 1.1.092 1.646.276a4.09 4.09 0 0 1 1.484.894c.45.413.808.958 1.075 1.637.266.678.399 1.512.399 2.502v.704h-8.2v-1.408h7.316l-.752.532c0-.71-.111-1.341-.333-1.893-.222-.552-.555-.986-.999-1.303-.438-.317-.983-.476-1.636-.476-.654 0-1.215.162-1.684.485a3.14 3.14 0 0 0-1.066 1.247 3.767 3.767 0 0 0-.371 1.655v.932c0 .806.14 1.488.419 2.046a2.97 2.97 0 0 0 1.17 1.275c.501.285 1.081.428 1.741.428.425 0 .812-.06 1.161-.181.349-.127.65-.314.903-.561a2.5 2.5 0 0 0 .581-.933l1.579.457a3.477 3.477 0 0 1-.837 1.408 4.05 4.05 0 0 1-1.446.942c-.577.222-1.224.333-1.941.333Zm7.554-6.622v6.394h-1.617v-10.637h1.56v1.675h.152a3.028 3.028 0 0 1 1.132-1.313c.507-.33 1.164-.495 1.969-.495.717 0 1.345.146 1.884.438.539.292.958.735 1.256 1.332.304.59.457 1.338.457 2.245v6.755h-1.618v-6.641c0-.831-.219-1.481-.656-1.95-.438-.476-1.034-.714-1.789-.714-.52 0-.986.114-1.398.343a2.487 2.487 0 0 0-.98.989c-.235.431-.352.958-.352 1.579Zm13.49-4.243v1.389h-5.499v-1.389h5.499Zm-3.9-2.53h1.617v10.122c0 .552.114.958.342 1.218.229.254.59.38 1.085.38.108 0 .219-.006.333-.019.12-.012.25-.031.39-.057l.342 1.465a2.66 2.66 0 0 1-.561.134 3.773 3.773 0 0 1-.656.057c-.857 0-1.554-.254-2.093-.761-.533-.508-.799-1.167-.799-1.979v-10.56Z"/></g><defs><filter id="a" width="325.104" height="156.548" x="-8" y="28.226" color-interpolation-filters="sRGB" filterUnits="userSpaceOnUse"><feFlood flood-opacity="0" result="BackgroundImageFix"/><feColorMatrix in="SourceAlpha" result="hardAlpha" values="0 0 0 0 0 0 0 0 0 0 0 0 0 0 0 0 0 0 127 0"/><feOffset dy="-3"/><feGaussianBlur stdDeviation="4"/><feComposite in2="hardAlpha" operator="out"/><feColorMatrix values="0 0 0 0 0 0 0 0 0 0 0 0 0 0 0 0 0 0 0.05 0"/><feBlend in2="BackgroundImageFix" result="effect1_dropShadow_14761_66"/><feBlend in="SourceGraphic" in2="effect1_dropShadow_14761_66" result="shape"/></filter></defs></svg>