<svg xmlns="http://www.w3.org/2000/svg" width="309" height="180" fill="none"><g filter="url(#a)"><rect width="142.188" height="142.189" x="26.957" y="20.992" fill="#fff" rx="21.175" shape-rendering="crispEdges" transform="rotate(-7.636 26.957 20.992)"/><rect width="141.114" height="141.114" x="27.561" y="21.453" stroke="#EEE" stroke-width="1.074" rx="20.638" shape-rendering="crispEdges" transform="rotate(-7.636 27.56 21.453)"/><path fill="#FF9E69" d="M150.472 73.578a44.408 44.408 0 0 0-49.407-35.6l2.651 20.112a24.126 24.126 0 0 1 26.838 19.339l19.918-3.85Z"/><path fill="#FFD1A7" d="M101.682 37.9a44.412 44.412 0 0 0-39.153 46.643l20.254-1.158a24.125 24.125 0 0 1 21.268-25.337l-2.369-20.147Z"/><path fill="#659BFF" d="M63.39 72.959a44.412 44.412 0 1 0 86.63-1.452l-19.711 4.797a24.117 24.117 0 0 1-4.347 20.451 24.133 24.133 0 0 1-18.689 9.375A24.127 24.127 0 0 1 83.25 77.093l-19.86-4.134Z"/></g><g filter="url(#b)"><rect width="139.227" height="158.603" x="143.955" fill="#fff" rx="21.175" shape-rendering="crispEdges" transform="rotate(9.751 143.955 0)"/><rect width="138.153" height="157.529" x="144.394" y=".62" stroke="#EEE" stroke-width="1.074" rx="20.638" shape-rendering="crispEdges" transform="rotate(9.751 144.394 .62)"/><path fill="#FFD1A7" d="M231.008 62.64a44.408 44.408 0 0 0-67.521-4.092 44.41 44.41 0 0 0 6.764 67.306l11.536-16.687a24.128 24.128 0 0 1-10.284-17.431 24.113 24.113 0 0 1 15.227-24.884 24.124 24.124 0 0 1 28.062 7.976l16.216-12.188Z"/><path fill="#4686FE" d="M158.356 113.658a44.421 44.421 0 0 0 32.959 19.878 44.417 44.417 0 0 0 36.108-13.331 44.413 44.413 0 0 0 5.338-55.058 44.409 44.409 0 0 0-14.156-13.756l-10.551 17.327a24.127 24.127 0 0 1-4.192 43.237 24.124 24.124 0 0 1-28.536-9.413l-16.97 11.116Z"/><g filter="url(#c)"><rect width="30.339" height="30.339" x="201.138" y="112" fill="#fff" rx="15.169" shape-rendering="crispEdges" transform="rotate(9.751 201.138 112)"/><path fill="#595959" d="M205.883 132.371a2.697 2.697 0 0 1-1.133-.457 2.223 2.223 0 0 1-.713-.857 1.936 1.936 0 0 1-.165-1.088l.887.152a1.23 1.23 0 0 0 .318.926c.24.272.555.441.946.509.313.053.602.028.868-.077.266-.104.491-.272.674-.503.183-.231.303-.509.359-.835.056-.33.034-.638-.067-.925a1.612 1.612 0 0 0-.485-.718 1.652 1.652 0 0 0-.822-.377 2.482 2.482 0 0 0-.737-.011 2 2 0 0 0-.644.173l-.848-.251 1.101-3.661 3.943.678-.14.815-3.169-.545-.65 2.196.041.007c.178-.098.39-.167.638-.205.249-.041.502-.039.76.005.465.08.861.262 1.186.545.326.283.559.634.7 1.054.146.417.176.871.091 1.364a2.598 2.598 0 0 1-.548 1.238 2.413 2.413 0 0 1-1.046.743 2.565 2.565 0 0 1-1.345.105Zm5.798.996a2.702 2.702 0 0 1-1.133-.457 2.224 2.224 0 0 1-.713-.857 1.935 1.935 0 0 1-.165-1.088l.887.153c-.024.345.082.654.318.925.24.272.556.442.946.509.313.054.602.028.868-.076a1.59 1.59 0 0 0 .674-.504c.183-.23.303-.509.359-.835a1.821 1.821 0 0 0-.067-.924 1.644 1.644 0 0 0-1.307-1.095 2.481 2.481 0 0 0-.737-.012c-.254.03-.468.088-.644.173l-.848-.251 1.101-3.661 3.943.678-.14.815-3.169-.544-.65 2.196.041.007a1.9 1.9 0 0 1 .638-.205c.249-.041.502-.04.76.004.465.08.861.262 1.186.545.326.284.559.635.7 1.054.146.417.176.871.091 1.364a2.598 2.598 0 0 1-.548 1.238 2.417 2.417 0 0 1-1.046.744 2.575 2.575 0 0 1-1.345.104Zm7.559-.275.068-.397a1.75 1.75 0 0 1 .3-.735 1.39 1.39 0 0 1 .599-.469c.245-.101.525-.125.841-.071.323.056.581.172.774.349.194.176.325.389.394.639.073.25.085.515.037.793l-.068.398a1.755 1.755 0 0 1-.3.735 1.364 1.364 0 0 1-.589.47c-.242.102-.522.126-.841.071-.32-.055-.578-.171-.775-.348a1.356 1.356 0 0 1-.403-.641 1.746 1.746 0 0 1-.037-.794Zm.822-.267-.068.397c-.04.231-.021.448.056.65.078.198.249.322.513.371.262.042.462-.019.598-.18.14-.165.23-.363.27-.594l.068-.397c.04-.231.022-.446-.052-.644-.071-.198-.241-.319-.509-.366-.258-.044-.459.014-.602.175a1.164 1.164 0 0 0-.274.588Zm-3.857-4.723.069-.398a1.7 1.7 0 0 1 .304-.734c.155-.211.354-.368.595-.47.245-.101.525-.124.841-.07.322.055.581.171.774.348.197.177.33.391.399.64.072.25.083.515.031.793l-.068.397a1.687 1.687 0 0 1-.299.735 1.37 1.37 0 0 1-.59.471c-.241.102-.522.125-.841.07-.319-.055-.577-.171-.774-.348a1.35 1.35 0 0 1-.404-.641 1.775 1.775 0 0 1-.037-.793Zm.823-.268-.069.397c-.039.231-.021.448.057.65.077.199.249.319.514.361.261.049.46-.008.596-.17.14-.165.23-.363.27-.594l.068-.397c.04-.231.023-.446-.052-.644-.07-.201-.24-.322-.509-.365-.257-.048-.458.01-.601.174a1.155 1.155 0 0 0-.274.588Zm-1.529 6.084 6.522-6.695.846.146-6.522 6.695-.846-.146Z"/></g><g filter="url(#d)"><rect width="30.339" height="30.339" x="163.472" y="25.944" fill="#fff" rx="15.169" shape-rendering="crispEdges" transform="rotate(9.751 163.472 25.944)"/><path fill="#595959" d="m165.462 44.131.13-.754 4.239-4.706.55.095-.201 1.172-.377-.065-3.202 3.552-.01.06 4.494.773-.14.815-5.483-.942Zm3.299 2.172 1.305-7.592.876.151-1.305 7.591-.876-.15Zm5.169.993a2.7 2.7 0 0 1-1.133-.457 2.226 2.226 0 0 1-.713-.857 1.944 1.944 0 0 1-.165-1.088l.887.153c-.024.345.082.654.318.925.24.272.556.442.946.509.313.054.602.028.868-.076a1.59 1.59 0 0 0 .674-.504c.183-.23.303-.509.359-.835a1.81 1.81 0 0 0-.067-.924 1.647 1.647 0 0 0-1.307-1.095 2.485 2.485 0 0 0-.737-.012c-.254.03-.468.088-.644.173l-.848-.25 1.101-3.662 3.944.678-.141.815-3.169-.544-.65 2.196.041.007a1.9 1.9 0 0 1 .638-.205 2.27 2.27 0 0 1 .76.005c.466.08.861.261 1.186.544.326.284.559.635.701 1.054.145.417.175.872.09 1.364a2.587 2.587 0 0 1-.548 1.238 2.417 2.417 0 0 1-1.046.744 2.57 2.57 0 0 1-1.345.104Zm7.559-.274.068-.398a1.75 1.75 0 0 1 .3-.735 1.39 1.39 0 0 1 .599-.469c.245-.101.525-.125.841-.07.323.055.581.171.775.348.193.176.324.39.393.639.073.25.085.515.037.793l-.068.398a1.752 1.752 0 0 1-.3.735 1.362 1.362 0 0 1-.589.47c-.242.102-.522.126-.841.07-.32-.054-.578-.17-.774-.347a1.35 1.35 0 0 1-.404-.641 1.742 1.742 0 0 1-.037-.793Zm.822-.268-.068.397c-.04.231-.021.448.056.65.078.198.249.322.513.371.262.042.462-.018.598-.18.14-.165.23-.363.27-.594l.068-.397c.04-.231.022-.446-.052-.644-.071-.198-.241-.32-.509-.365-.258-.045-.459.013-.602.174a1.16 1.16 0 0 0-.274.588Zm-3.857-4.723.069-.398c.048-.278.149-.523.304-.734.155-.211.354-.368.595-.47.245-.1.525-.124.841-.07.323.055.581.171.774.348.197.177.33.39.399.64.072.25.083.515.032.793l-.069.397a1.68 1.68 0 0 1-.299.735 1.37 1.37 0 0 1-.59.47c-.241.103-.521.126-.841.071-.319-.055-.577-.17-.774-.348a1.358 1.358 0 0 1-.404-.641 1.775 1.775 0 0 1-.037-.793Zm.823-.268-.069.398c-.039.23-.021.447.057.65.077.198.249.318.515.36.261.049.459-.008.595-.17a1.2 1.2 0 0 0 .27-.594l.068-.397c.04-.231.023-.445-.052-.644-.07-.2-.24-.322-.508-.365-.258-.048-.459.01-.602.175-.143.16-.235.356-.274.587Zm-1.528 6.084 6.521-6.694.846.145-6.522 6.695-.845-.146Z"/></g></g><defs><filter id="a" width="175.822" height="175.823" x="18.957" y="-3.903" color-interpolation-filters="sRGB" filterUnits="userSpaceOnUse"><feFlood flood-opacity="0" result="BackgroundImageFix"/><feColorMatrix in="SourceAlpha" result="hardAlpha" values="0 0 0 0 0 0 0 0 0 0 0 0 0 0 0 0 0 0 127 0"/><feOffset dy="2"/><feGaussianBlur stdDeviation="4"/><feComposite in2="hardAlpha" operator="out"/><feColorMatrix values="0 0 0 0 0 0 0 0 0 0 0 0 0 0 0 0 0 0 0.05 0"/><feBlend in2="BackgroundImageFix" result="effect1_dropShadow_14761_122"/><feBlend in="SourceGraphic" in2="effect1_dropShadow_14761_122" result="shape"/></filter><filter id="b" width="180.078" height="195.892" x="109.093" y="-6" color-interpolation-filters="sRGB" filterUnits="userSpaceOnUse"><feFlood flood-opacity="0" result="BackgroundImageFix"/><feColorMatrix in="SourceAlpha" result="hardAlpha" values="0 0 0 0 0 0 0 0 0 0 0 0 0 0 0 0 0 0 127 0"/><feOffset dy="2"/><feGaussianBlur stdDeviation="4"/><feComposite in2="hardAlpha" operator="out"/><feColorMatrix values="0 0 0 0 0 0 0 0 0 0 0 0 0 0 0 0 0 0 0.05 0"/><feBlend in2="BackgroundImageFix" result="effect1_dropShadow_14761_122"/><feBlend in="SourceGraphic" in2="effect1_dropShadow_14761_122" result="shape"/></filter><filter id="c" width="51.039" height="51.039" x="188" y="108" color-interpolation-filters="sRGB" filterUnits="userSpaceOnUse"><feFlood flood-opacity="0" result="BackgroundImageFix"/><feColorMatrix in="SourceAlpha" result="hardAlpha" values="0 0 0 0 0 0 0 0 0 0 0 0 0 0 0 0 0 0 127 0"/><feOffset dy="4"/><feGaussianBlur stdDeviation="4"/><feComposite in2="hardAlpha" operator="out"/><feColorMatrix values="0 0 0 0 0 0 0 0 0 0 0 0 0 0 0 0 0 0 0.15 0"/><feBlend in2="BackgroundImageFix" result="effect1_dropShadow_14761_122"/><feBlend in="SourceGraphic" in2="effect1_dropShadow_14761_122" result="shape"/></filter><filter id="d" width="51.039" height="51.039" x="150.334" y="21.944" color-interpolation-filters="sRGB" filterUnits="userSpaceOnUse"><feFlood flood-opacity="0" result="BackgroundImageFix"/><feColorMatrix in="SourceAlpha" result="hardAlpha" values="0 0 0 0 0 0 0 0 0 0 0 0 0 0 0 0 0 0 127 0"/><feOffset dy="4"/><feGaussianBlur stdDeviation="4"/><feComposite in2="hardAlpha" operator="out"/><feColorMatrix values="0 0 0 0 0 0 0 0 0 0 0 0 0 0 0 0 0 0 0.15 0"/><feBlend in2="BackgroundImageFix" result="effect1_dropShadow_14761_122"/><feBlend in="SourceGraphic" in2="effect1_dropShadow_14761_122" result="shape"/></filter></defs></svg>