<svg xmlns="http://www.w3.org/2000/svg" width="309" height="180" fill="none"><path fill="#E9ECF1" d="M304.594 139.077A154.78 154.78 0 0 0 3.516 140.31l60.658 14.237a92.475 92.475 0 0 1 179.88-.737l60.54-14.733Z"/><path fill="url(#a)" d="M108.507 27.796A154.782 154.782 0 0 0 3.64 139.778l60.608 14.452A92.48 92.48 0 0 1 126.9 87.326l-18.394-59.53Z"/><path fill="#595959" d="M139.155 161.961c-2.485 0-4.699-.457-6.645-1.371-1.933-.914-3.468-2.173-4.605-3.779-1.136-1.605-1.728-3.445-1.775-5.519h7.382c.082 1.395.668 2.525 1.758 3.393 1.09.867 2.385 1.3 3.885 1.3 1.195 0 2.249-.263 3.163-.791a5.654 5.654 0 0 0 2.162-2.232c.528-.961.791-2.062.791-3.304 0-1.266-.269-2.379-.808-3.34a5.721 5.721 0 0 0-2.197-2.25c-.938-.539-2.01-.814-3.217-.826a7.64 7.64 0 0 0-3.076.65c-.984.434-1.752 1.026-2.302 1.776l-6.768-1.213 1.705-18.983h22.007v6.222h-15.732l-.931 9.017h.211c.632-.891 1.587-1.629 2.865-2.215 1.277-.586 2.707-.879 4.288-.879 2.168 0 4.102.51 5.801 1.53 1.699 1.019 3.041 2.419 4.025 4.201.984 1.769 1.471 3.808 1.459 6.116.012 2.426-.551 4.582-1.688 6.469-1.124 1.874-2.701 3.351-4.728 4.429-2.015 1.066-4.359 1.599-7.03 1.599Zm32.183 0c-2.707 0-5.115-.439-7.224-1.318-2.098-.89-3.744-2.103-4.939-3.638-1.196-1.535-1.793-3.275-1.793-5.221 0-1.499.34-2.876 1.019-4.13a9.172 9.172 0 0 1 2.813-3.146 9.258 9.258 0 0 1 3.972-1.617v-.247c-1.922-.386-3.48-1.318-4.676-2.794-1.195-1.488-1.792-3.217-1.792-5.185 0-1.864.544-3.522 1.634-4.975 1.09-1.464 2.584-2.613 4.482-3.445 1.91-.844 4.078-1.265 6.504-1.265 2.425 0 4.587.421 6.486 1.265 1.91.844 3.41 1.998 4.499 3.463 1.09 1.453 1.641 3.105 1.653 4.957-.012 1.98-.621 3.708-1.828 5.185-1.207 1.476-2.754 2.408-4.641 2.794v.247a9.113 9.113 0 0 1 3.92 1.617 9.17 9.17 0 0 1 2.812 3.146c.703 1.254 1.061 2.631 1.072 4.13-.011 1.946-.615 3.686-1.81 5.221-1.195 1.535-2.847 2.748-4.957 3.638-2.097.879-4.499 1.318-7.206 1.318Zm0-5.589c1.207 0 2.261-.217 3.164-.65.902-.446 1.605-1.055 2.109-1.828.515-.785.773-1.688.773-2.707 0-1.043-.263-1.963-.791-2.76a5.44 5.44 0 0 0-2.144-1.898c-.902-.469-1.939-.703-3.111-.703-1.16 0-2.197.234-3.111.703-.914.457-1.635 1.09-2.162 1.898-.516.797-.774 1.717-.774 2.76 0 1.019.252 1.922.756 2.707.504.773 1.213 1.382 2.127 1.828.914.433 1.969.65 3.164.65Zm0-16.083c1.008 0 1.904-.205 2.689-.615a4.64 4.64 0 0 0 1.846-1.705c.445-.727.668-1.564.668-2.514 0-.937-.223-1.757-.668-2.46a4.58 4.58 0 0 0-1.828-1.67c-.774-.41-1.676-.615-2.707-.615-1.02 0-1.922.205-2.707.615-.785.398-1.4.955-1.846 1.67-.433.703-.65 1.523-.65 2.46 0 .95.223 1.787.668 2.514a4.628 4.628 0 0 0 1.846 1.705c.785.41 1.681.615 2.689.615Z"/><defs><linearGradient id="a" x1="156.683" x2="202.299" y1="30.808" y2="141.391" gradientUnits="userSpaceOnUse"><stop offset=".158" stop-color="#4686FE"/><stop offset=".896" stop-color="#659BFF"/></linearGradient></defs></svg>