<svg xmlns="http://www.w3.org/2000/svg" width="309" height="180" fill="none"><path fill="#E6E6E6" d="M304.035 168.125c0-1.36-.019-2.72-.056-4.079l-24.969.693c.031 1.128.047 2.257.047 3.386h24.978Zm-.823-15.536a149.065 149.065 0 0 0-.488-4.05l-24.756 3.331c.151 1.118.286 2.239.405 3.361l24.839-2.642Zm-2.472-15.401a150.397 150.397 0 0 0-.915-3.975l-24.263 5.937a115.9 115.9 0 0 1 .759 3.3l24.419-5.262Zm-4.321-15.747c-.432-1.29-.882-2.573-1.35-3.85l-23.454 8.594c.388 1.06.762 2.125 1.12 3.195l23.684-7.939Zm-5.99-15.054c-.571-1.234-1.16-2.46-1.766-3.677l-22.364 11.125c.503 1.01.991 2.028 1.466 3.052l22.664-10.5Zm-7.764-14.558a146.83 146.83 0 0 0-2.168-3.456l-20.975 13.563a121.74 121.74 0 0 1 1.798 2.868l21.345-12.975Zm-9.07-13.232a148.866 148.866 0 0 0-2.531-3.2l-19.372 15.77c.713.876 1.413 1.761 2.101 2.656l19.802-15.226Zm-9.414-12.924c-.932-.99-1.877-1.969-2.835-2.933l-17.719 17.606c.796.8 1.58 1.612 2.353 2.434l18.201-17.107Zm-11.384-10.88a147.633 147.633 0 0 0-3.132-2.613l-15.732 19.402a124.89 124.89 0 0 1 2.6 2.169l16.264-18.958Zm-13.488-10.28a146.214 146.214 0 0 0-3.413-2.235l-13.39 21.086c.953.605 1.897 1.224 2.832 1.855l13.971-20.706Z"/><path fill="#4686FE" d="M224.871 34.689a144.919 144.919 0 0 0-3.646-1.83L210.33 55.336c1.016.492 2.024.999 3.026 1.519l11.515-22.166Zm-14.476-6.551a147.09 147.09 0 0 0-3.822-1.426l-8.404 23.523c1.063.38 2.121.774 3.173 1.183l9.053-23.28Zm-15.567-5.695c-1.314-.35-2.633-.68-3.957-.992l-5.733 24.312c1.099.26 2.194.534 3.284.823l6.406-24.143Zm-15.795-3.275a147.55 147.55 0 0 0-4.042-.552l-3.033 24.794c1.121.137 2.239.29 3.355.458l3.72-24.7ZM162.24 17.02a147.158 147.158 0 0 0-4.079-.101l-.275 24.977c1.129.012 2.257.04 3.385.084l.969-24.96Zm-15.765.235a149.48 149.48 0 0 0-4.066.337l2.404 24.862c1.123-.108 2.248-.201 3.374-.279l-1.712-24.92Zm-16.117 2.008c-1.338.243-2.673.504-4.004.783l5.134 24.446c1.105-.232 2.212-.449 3.323-.65l-4.453-24.579Zm-15.945 3.818c-1.303.39-2.6.799-3.892 1.225l7.827 23.72c1.072-.353 2.148-.692 3.229-1.015l-7.164-23.93Zm-15.772 5.723c-1.25.536-2.492 1.09-3.726 1.66l10.481 22.674c1.024-.474 2.055-.933 3.092-1.378l-9.847-22.956Zm-14.127 6.981a145.69 145.69 0 0 0-3.527 2.05l12.85 21.42c.967-.58 1.943-1.148 2.926-1.701l-12.25-21.769Zm-14.941 7.949c-1.1.8-2.19 1.614-3.267 2.444l15.24 19.79a122.39 122.39 0 0 1 2.712-2.028L69.573 43.734ZM57.095 53.893c-1.006.915-2 1.844-2.98 2.787L71.43 74.684c.813-.782 1.637-1.553 2.472-2.313L57.095 53.893ZM45.721 65.138a146.77 146.77 0 0 0-2.75 3.014l18.682 16.58c.75-.844 1.51-1.678 2.283-2.5L45.72 65.137Zm-10.366 12.34a146.512 146.512 0 0 0-2.404 3.296l20.387 14.434c.652-.921 1.317-1.833 1.994-2.736L35.355 77.478ZM26.329 91a146.93 146.93 0 0 0-2.024 3.541l21.856 12.093c.546-.988 1.106-1.968 1.68-2.94L26.33 91Zm-7.831 15.238a146.788 146.788 0 0 0-1.598 3.754l23.116 9.464c.428-1.044.87-2.083 1.326-3.115l-22.844-10.103Zm-5.71 15.104c-.41 1.296-.802 2.598-1.176 3.906l24.015 6.87c.31-1.085.636-2.166.976-3.242l-23.815-7.534ZM8.861 136.53c-.27 1.333-.52 2.669-.753 4.009l24.611 4.269c.193-1.112.402-2.221.625-3.327L8.861 136.53Zm-2.375 16.541a146.773 146.773 0 0 0-.293 4.069l24.937 1.446c.065-1.127.146-2.252.243-3.377l-24.887-2.138Z"/></svg>