<svg xmlns="http://www.w3.org/2000/svg" width="280" height="163" fill="none"><rect width="280" height="163" fill="#fff" rx="16"/><path fill="url(#a)" d="M12 12h34.82v139H12V12Z"/><path fill="url(#b)" d="M49.38 12H84.2v139H49.38V12Z"/><path fill="url(#c)" d="M86.76 12h34.82v139H86.76V12Z"/><path fill="url(#d)" d="M124.139 12h34.821v139h-34.821V12Z"/><path fill="url(#e)" d="M161.518 12h33.272v139h-33.272V12Z"/><path fill="#659BFF" fill-opacity=".2" d="M197.349 12h34.821v139h-34.821V12Z"/><path fill="url(#f)" d="M234.728 12H268v139h-33.272V12Z"/><g filter="url(#g)"><rect width="129.056" height="23.194" x="114" y="25" fill="#fff" rx="5.597" shape-rendering="crispEdges"/><rect width="128.59" height="22.728" x="114.233" y="25.233" stroke="#E4E4E9" stroke-width=".466" rx="5.364" shape-rendering="crispEdges"/><path fill="#4686FE" d="M124.484 41.53v-9.328h.597v9.328h-.597Zm1.869-6.435a1.064 1.064 0 0 0-.481-.802c-.282-.192-.636-.288-1.064-.288-.306 0-.571.049-.794.146a1.214 1.214 0 0 0-.521.393.926.926 0 0 0-.183.565c0 .178.042.33.124.46.085.128.196.236.332.324.138.085.287.157.444.215.158.056.31.102.456.138l.729.19c.238.058.482.137.732.237.25.1.482.23.696.393a1.759 1.759 0 0 1 .718 1.468c0 .423-.109.799-.328 1.127-.216.328-.531.586-.944.776-.41.19-.907.284-1.49.284-.559 0-1.042-.089-1.45-.266a2.232 2.232 0 0 1-.959-.754 2.182 2.182 0 0 1-.382-1.166h1.129c.022.27.11.494.263.674.155.177.353.31.594.397.243.085.509.127.798.127.318 0 .601-.05.849-.149a1.42 1.42 0 0 0 .59-.423 1 1 0 0 0 .215-.637.78.78 0 0 0-.19-.543 1.388 1.388 0 0 0-.506-.35 4.955 4.955 0 0 0-.718-.244l-.882-.24c-.597-.163-1.071-.403-1.421-.718-.347-.316-.521-.734-.521-1.254 0-.43.117-.805.35-1.126a2.3 2.3 0 0 1 .947-.747c.399-.18.848-.27 1.349-.27.505 0 .951.089 1.337.266.389.178.695.422.918.733.224.308.34.663.35 1.064h-1.086Zm2.275 4.045v-.911l3.225-5.095h.718v1.341h-.456l-2.307 3.652v.058h4.421v.955h-5.601Zm3.538 1.457v-1.734l.007-.416v-5.313h1.068v7.463h-1.075Zm4.484-1.02-.055.397a6.382 6.382 0 0 1-.185.911 21.595 21.595 0 0 1-.489 1.534h-.772c.031-.15.075-.354.131-.612.056-.255.11-.54.164-.856.053-.316.093-.638.12-.966l.037-.408h1.049Zm3.795 1.122c-.522 0-.984-.09-1.384-.27a2.265 2.265 0 0 1-.937-.743 1.784 1.784 0 0 1-.335-1.078 1.895 1.895 0 0 1 .736-1.538 1.68 1.68 0 0 1 .765-.343v-.043a1.506 1.506 0 0 1-.893-.598 1.747 1.747 0 0 1-.331-1.064 1.742 1.742 0 0 1 .302-1.02c.207-.302.49-.538.849-.711.36-.172.769-.259 1.228-.259.454 0 .86.088 1.217.263a2.1 2.1 0 0 1 .849.71c.207.299.311.638.314 1.017a1.78 1.78 0 0 1-.343 1.064c-.226.309-.52.508-.882.598v.043c.28.049.531.163.755.343.226.177.405.4.539.667.136.264.205.555.208.87a1.831 1.831 0 0 1-.343 1.08 2.261 2.261 0 0 1-.94.742c-.398.18-.856.27-1.374.27Zm0-.922c.309 0 .576-.05.802-.153.226-.104.401-.249.525-.433a1.18 1.18 0 0 0 .189-.656c-.002-.26-.07-.49-.204-.689-.131-.2-.31-.356-.536-.47a1.695 1.695 0 0 0-.776-.171 1.74 1.74 0 0 0-.783.17 1.36 1.36 0 0 0-.54.471 1.21 1.21 0 0 0-.193.689c-.002.25.057.469.179.656.124.184.3.329.528.433.229.102.498.153.809.153Zm0-3.472c.248 0 .468-.05.66-.15a1.136 1.136 0 0 0 .623-1.038 1.153 1.153 0 0 0-.168-.612 1.064 1.064 0 0 0-.448-.405 1.457 1.457 0 0 0-.667-.146c-.257 0-.483.049-.678.146a1.07 1.07 0 0 0-.448.404 1.12 1.12 0 0 0-.156.613 1.14 1.14 0 0 0 .16.623c.109.177.26.316.452.415.194.1.418.15.67.15Zm6.444-3.273c.332.003.66.064.984.183.323.118.614.313.874.582.262.27.471.635.627 1.094.158.456.238 1.025.24 1.705 0 .654-.065 1.235-.196 1.746-.132.507-.32.936-.565 1.286-.243.35-.538.616-.886.798a2.485 2.485 0 0 1-1.173.273 2.58 2.58 0 0 1-1.184-.262 2.254 2.254 0 0 1-.842-.725 2.408 2.408 0 0 1-.405-1.072h1.112c.073.321.221.581.444.78.226.197.518.295.875.295.547 0 .973-.238 1.279-.714.306-.478.46-1.146.463-2.004h-.059a2.014 2.014 0 0 1-.473.54c-.187.15-.397.267-.631.35a2.22 2.22 0 0 1-.747.123c-.43 0-.821-.106-1.173-.317a2.34 2.34 0 0 1-.842-.871 2.521 2.521 0 0 1-.313-1.264c0-.472.107-.9.32-1.283.217-.384.518-.688.904-.911.389-.226.844-.337 1.367-.332Zm.003.948c-.284 0-.54.07-.769.211a1.493 1.493 0 0 0-.535.565 1.592 1.592 0 0 0-.197.787c0 .29.063.551.189.787.129.233.304.42.525.558.224.136.479.204.765.204.214 0 .413-.042.598-.124.185-.083.346-.197.485-.343a1.68 1.68 0 0 0 .324-.503c.078-.187.117-.383.117-.59 0-.274-.066-.53-.197-.765a1.534 1.534 0 0 0-.532-.569 1.395 1.395 0 0 0-.773-.218Zm6.637 6.741c-.576-.002-1.068-.154-1.476-.455-.408-.302-.72-.74-.936-1.316-.217-.576-.325-1.27-.325-2.08s.108-1.5.325-2.074c.218-.573.532-1.01.94-1.312.41-.301.901-.452 1.472-.452s1.06.152 1.468.456c.409.301.721.738.937 1.312.219.57.328 1.26.328 2.07 0 .813-.108 1.508-.324 2.084-.217.573-.529 1.011-.937 1.315-.408.301-.899.452-1.472.452Zm0-.973c.505 0 .9-.246 1.184-.74.287-.493.43-1.206.43-2.139 0-.62-.065-1.143-.197-1.57-.128-.43-.314-.756-.557-.977a1.22 1.22 0 0 0-.86-.335c-.503 0-.898.248-1.184.743-.287.496-.432 1.209-.434 2.14 0 .621.064 1.147.193 1.577.131.428.317.752.558.973.24.219.529.328.867.328Z"/><path fill="#000" d="M163.414 40.597v-7.463h1.126v3.243h3.72v-3.243h1.13v7.463h-1.13v-3.254h-3.72v3.254h-1.126Zm7.528 0V35h1.09v5.597h-1.09Zm.55-6.46a.692.692 0 0 1-.488-.19.614.614 0 0 1-.2-.46c0-.179.066-.332.2-.458a.685.685 0 0 1 .488-.194c.19 0 .351.065.485.194a.603.603 0 0 1 .204.459c0 .177-.068.33-.204.459a.68.68 0 0 1-.485.19Zm4.352 8.676c-.444 0-.827-.059-1.148-.175a2.23 2.23 0 0 1-.78-.463 1.94 1.94 0 0 1-.451-.63l.936-.387c.066.107.153.22.262.34.112.12.263.224.452.309.192.085.439.127.74.127.413 0 .754-.1 1.024-.302.27-.2.404-.517.404-.955v-1.1h-.069c-.065.119-.16.251-.284.397a1.53 1.53 0 0 1-.503.379c-.214.107-.492.16-.834.16a2.33 2.33 0 0 1-1.196-.31 2.202 2.202 0 0 1-.838-.921c-.204-.408-.306-.91-.306-1.505 0-.595.101-1.106.303-1.53a2.3 2.3 0 0 1 .838-.977 2.178 2.178 0 0 1 1.206-.343c.347 0 .628.059.842.175.214.114.38.248.499.4.121.154.215.289.281.405h.08V35h1.067v5.721c0 .481-.111.876-.335 1.184a1.971 1.971 0 0 1-.907.685 3.501 3.501 0 0 1-1.283.223Zm-.011-3.203c.314 0 .578-.073.795-.219.218-.148.383-.36.495-.634.114-.277.171-.609.171-.995 0-.376-.055-.708-.167-.995a1.481 1.481 0 0 0-.492-.67c-.216-.163-.484-.244-.802-.244-.328 0-.601.085-.82.255a1.536 1.536 0 0 0-.495.685c-.11.289-.164.612-.164.97 0 .366.056.688.167.965.112.277.277.493.496.648.221.156.493.234.816.234Zm5.087-2.336v3.323h-1.089v-7.463h1.075v2.777h.069a1.61 1.61 0 0 1 .601-.718c.27-.177.622-.266 1.057-.266.384 0 .719.08 1.006.237.289.158.512.394.67.707.16.31.241.7.241 1.166v3.56h-1.09v-3.429c0-.41-.106-.729-.317-.954-.211-.229-.505-.343-.882-.343-.257 0-.488.055-.692.164-.202.11-.361.27-.478.48a1.562 1.562 0 0 0-.171.759Zm7.496 3.436c-.552 0-1.027-.118-1.425-.353a2.396 2.396 0 0 1-.918-1.002c-.214-.433-.321-.94-.321-1.52 0-.573.107-1.079.321-1.516a2.49 2.49 0 0 1 .903-1.024c.389-.245.843-.368 1.363-.368.316 0 .622.052.919.157.296.104.562.268.798.492.235.223.421.514.557.87.136.355.204.787.204 1.294v.387h-4.449v-.817h3.381c0-.286-.058-.54-.174-.761a1.328 1.328 0 0 0-.492-.529 1.377 1.377 0 0 0-.736-.193 1.42 1.42 0 0 0-.802.226 1.518 1.518 0 0 0-.525.583 1.689 1.689 0 0 0-.182.776v.638c0 .374.066.692.197.955.133.262.319.462.557.601.238.136.516.204.835.204.206 0 .394-.03.565-.087a1.177 1.177 0 0 0 .725-.71l1.031.185a1.87 1.87 0 0 1-.445.798 2.149 2.149 0 0 1-.798.528 2.983 2.983 0 0 1-1.089.186Zm7.804-4.343-.987.174a1.183 1.183 0 0 0-.197-.36.974.974 0 0 0-.357-.28 1.295 1.295 0 0 0-.565-.11c-.308 0-.566.069-.772.208-.207.136-.31.312-.31.528a.56.56 0 0 0 .207.452c.139.114.362.207.671.28l.889.204c.515.12.899.303 1.152.55.252.248.379.57.379.966 0 .336-.098.634-.292.897-.192.26-.46.464-.805.612-.343.148-.74.222-1.192.222-.627 0-1.138-.133-1.534-.4-.396-.27-.639-.653-.729-1.149l1.053-.16c.066.275.201.482.405.623.204.139.47.208.798.208.357 0 .642-.074.856-.222.214-.151.321-.334.321-.55a.573.573 0 0 0-.197-.442c-.129-.119-.327-.208-.594-.27l-.947-.207c-.523-.119-.909-.308-1.159-.568-.248-.26-.372-.59-.372-.988 0-.33.093-.62.277-.867.185-.248.44-.441.765-.58.326-.14.699-.21 1.119-.21.605 0 1.081.13 1.429.393.347.26.577.608.688 1.046ZM200.14 35v.875h-3.057V35h3.057Zm-2.237-1.34h1.089v5.294c0 .211.032.37.095.477a.496.496 0 0 0 .244.215.982.982 0 0 0 .332.055c.087 0 .164-.006.229-.019.066-.012.117-.021.154-.029l.196.9a2.144 2.144 0 0 1-.707.117 1.914 1.914 0 0 1-.801-.153 1.376 1.376 0 0 1-.602-.496c-.153-.223-.229-.504-.229-.841v-5.52Zm6.158 6.937V35h1.09v5.597h-1.09Zm.55-6.46a.692.692 0 0 1-.488-.19.614.614 0 0 1-.2-.46c0-.179.066-.332.2-.458a.685.685 0 0 1 .488-.194c.19 0 .351.065.485.194a.603.603 0 0 1 .204.459c0 .177-.068.33-.204.459a.68.68 0 0 1-.485.19Zm3.095 3.137v3.323h-1.09V35h1.046v.911h.07a1.6 1.6 0 0 1 .604-.714c.277-.18.626-.27 1.046-.27.382 0 .716.08 1.002.24.287.159.509.394.667.708.158.313.237.7.237 1.162v3.56h-1.089v-3.429c0-.405-.106-.722-.318-.95-.211-.232-.501-.347-.87-.347-.253 0-.478.055-.675.164-.194.11-.348.27-.462.48a1.585 1.585 0 0 0-.168.759Zm7.846-4.14h1.367l2.376 5.801h.087l2.376-5.8h1.367v7.462h-1.072v-5.4h-.069l-2.201 5.39h-.889l-2.201-5.394h-.069v5.404h-1.072v-7.463Zm10.751 7.587c-.355 0-.675-.065-.962-.197a1.614 1.614 0 0 1-.681-.58c-.166-.252-.248-.562-.248-.928 0-.316.061-.576.182-.78.121-.204.285-.366.492-.485.206-.119.437-.209.692-.27a7.14 7.14 0 0 1 .78-.138l.816-.095c.209-.026.361-.069.456-.127.095-.059.142-.153.142-.284v-.026c0-.318-.09-.565-.27-.74-.177-.174-.442-.262-.794-.262-.367 0-.656.081-.867.244-.209.16-.354.339-.434.536l-1.024-.233a1.98 1.98 0 0 1 .532-.824c.236-.211.507-.364.813-.46a3.17 3.17 0 0 1 .965-.145c.224 0 .461.027.711.08.253.051.488.146.707.285.221.138.402.336.543.593.141.256.211.587.211.995v3.717h-1.064v-.765h-.044c-.07.14-.176.28-.317.415a1.69 1.69 0 0 1-.543.34 2.1 2.1 0 0 1-.794.134Zm.237-.874c.301 0 .559-.06.772-.179a1.241 1.241 0 0 0 .664-1.09v-.721a.574.574 0 0 1-.226.11 3.93 3.93 0 0 1-.376.083 48.8 48.8 0 0 1-.411.062l-.336.044a2.706 2.706 0 0 0-.579.135.988.988 0 0 0-.415.273.679.679 0 0 0-.154.466c0 .27.1.474.299.612.199.136.453.204.762.204Zm4.465 2.85a2.28 2.28 0 0 1-.744-.121l.263-.893c.199.053.376.077.532.07a.636.636 0 0 0 .411-.176c.122-.109.229-.288.321-.535l.135-.372-2.048-5.67h1.166l1.418 4.344h.058L233.934 35h1.17l-2.307 6.344a2.492 2.492 0 0 1-.408.74 1.584 1.584 0 0 1-.59.459 1.928 1.928 0 0 1-.794.153Z" opacity=".7"/></g><path stroke="#4686FE" stroke-linecap="round" stroke-width="1.866" d="M30 138c.96-22.721 5.49-66.967 16.155-82.732 2.333-3.449 7.291-3.694 9.956-.494 3.292 3.952 6.87 11.785 10.482 30.708.956 5.01 5.592 9.957 9.77 7.031 1.312-.92 2.813-2.292 4.644-4.315 2.288-2.53 5.768-4.291 8.264-1.965 4.07 3.794 10.026 13.737 22.456 38.47.938 1.867 2.324 3.573 4.24 4.405 2.93 1.272 6.093 1.212 9.489-4.253 2.326-4.574 8.369-25.603 12.83-41.85 1.541-5.611 8.21-7.989 12.932-4.587v0c4.123 2.97 9.922 1.576 12.243-2.943l4.568-8.89c4.664-9.08 18.052-7.69 20.752 2.155l7.043 25.678c1.703 6.21 8.833 9.116 14.392 5.867v0c5.46-3.192 12.519-.454 15.134 5.304 5.195 11.441 13.753 25.044 24.65 29.238"/><circle cx="178.528" cy="60.528" r="4.595" fill="#fff" stroke="#4686FE" stroke-width="1.866"/><defs><linearGradient id="a" x1="251.364" x2="251.364" y1="12" y2="151" gradientUnits="userSpaceOnUse"><stop stop-color="#659BFF" stop-opacity=".05"/><stop offset="1" stop-color="#659BFF" stop-opacity=".1"/></linearGradient><linearGradient id="b" x1="251.364" x2="251.364" y1="12" y2="151" gradientUnits="userSpaceOnUse"><stop stop-color="#659BFF" stop-opacity=".05"/><stop offset="1" stop-color="#659BFF" stop-opacity=".1"/></linearGradient><linearGradient id="c" x1="251.364" x2="251.364" y1="12" y2="151" gradientUnits="userSpaceOnUse"><stop stop-color="#659BFF" stop-opacity=".05"/><stop offset="1" stop-color="#659BFF" stop-opacity=".1"/></linearGradient><linearGradient id="d" x1="251.364" x2="251.364" y1="12" y2="151" gradientUnits="userSpaceOnUse"><stop stop-color="#659BFF" stop-opacity=".05"/><stop offset="1" stop-color="#659BFF" stop-opacity=".1"/></linearGradient><linearGradient id="e" x1="251.364" x2="251.364" y1="12" y2="151" gradientUnits="userSpaceOnUse"><stop stop-color="#659BFF" stop-opacity=".05"/><stop offset="1" stop-color="#659BFF" stop-opacity=".1"/></linearGradient><linearGradient id="f" x1="251.364" x2="251.364" y1="12" y2="151" gradientUnits="userSpaceOnUse"><stop stop-color="#659BFF" stop-opacity=".05"/><stop offset="1" stop-color="#659BFF" stop-opacity=".1"/></linearGradient><filter id="g" width="151.445" height="45.583" x="102.806" y="19.403" color-interpolation-filters="sRGB" filterUnits="userSpaceOnUse"><feFlood flood-opacity="0" result="BackgroundImageFix"/><feColorMatrix in="SourceAlpha" result="hardAlpha" values="0 0 0 0 0 0 0 0 0 0 0 0 0 0 0 0 0 0 127 0"/><feMorphology in="SourceAlpha" radius="4.664" result="effect1_dropShadow_14800_377"/><feOffset dy="5.597"/><feGaussianBlur stdDeviation="7.929"/><feComposite in2="hardAlpha" operator="out"/><feColorMatrix values="0 0 0 0 0.227451 0 0 0 0 0.301961 0 0 0 0 0.913725 0 0 0 0.15 0"/><feBlend in2="BackgroundImageFix" result="effect1_dropShadow_14800_377"/><feBlend in="SourceGraphic" in2="effect1_dropShadow_14800_377" result="shape"/></filter></defs></svg>