<svg width="14" height="14" viewBox="0 0 14 14" fill="none" xmlns="http://www.w3.org/2000/svg">
<g clip-path="url(#clip0_4132_168)">
<path d="M7.00008 10.3407L9.99258 12.1812C10.1512 12.2774 10.3525 12.2687 10.5024 12.159C10.6523 12.0493 10.7212 11.8603 10.6774 11.6795L9.86366 8.246L12.5266 5.94883C12.6654 5.82692 12.7185 5.63442 12.6619 5.45883C12.6047 5.28267 12.449 5.15783 12.2647 5.14092L8.76991 4.85625L7.42358 1.59717C7.353 1.42508 7.18616 1.3125 7.00008 1.3125C6.81458 1.3125 6.64716 1.42508 6.57658 1.59717L5.23025 4.85625L1.7355 5.14092C1.55 5.15667 1.3925 5.28267 1.33533 5.45942C1.27816 5.63617 1.333 5.83042 1.47358 5.95175L4.1365 8.24833L3.32275 11.6795C3.279 11.8603 3.34783 12.0493 3.49775 12.159C3.64766 12.2687 3.84891 12.2774 4.00758 12.1812L7.00008 10.3407Z" fill="#FAC020"/>
<path d="M7.00008 10.3407L9.99258 12.1812C10.1512 12.2774 10.3525 12.2687 10.5024 12.159C10.6523 12.0493 10.7212 11.8603 10.6774 11.6795L9.86366 8.246L12.5266 5.94883C12.6654 5.82692 12.7185 5.63442 12.6619 5.45883C12.6047 5.28267 12.449 5.15783 12.2647 5.14092L8.76991 4.85625L7.42358 1.59717C7.353 1.42508 7.18616 1.3125 7.00008 1.3125C6.81458 1.3125 6.64716 1.42508 6.57658 1.59717L5.23025 4.85625L1.7355 5.14092C1.55 5.15667 1.3925 5.28267 1.33533 5.45942C1.27816 5.63617 1.333 5.83042 1.47358 5.95175L4.1365 8.24833L3.32275 11.6795C3.279 11.8603 3.34783 12.0493 3.49775 12.159C3.64766 12.2687 3.84891 12.2774 4.00758 12.1812L7.00008 10.3407Z" stroke="#FAC020" stroke-width="0.875" stroke-linecap="round" stroke-linejoin="round"/>
</g>
<defs>
<clipPath id="clip0_4132_168">
<rect width="14" height="14" fill="white"/>
</clipPath>
</defs>
</svg>
