<svg width="78" height="14" viewBox="0 0 78 14" fill="none" xmlns="http://www.w3.org/2000/svg">
<g clip-path="url(#clip0_4132_183)">
<path d="M7.00008 10.3407L9.99258 12.1812C10.1512 12.2774 10.3525 12.2687 10.5024 12.159C10.6523 12.0493 10.7212 11.8603 10.6774 11.6795L9.86366 8.246L12.5266 5.94883C12.6654 5.82692 12.7185 5.63442 12.6619 5.45883C12.6047 5.28267 12.449 5.15783 12.2647 5.14092L8.76991 4.85625L7.42358 1.59717C7.353 1.42508 7.18616 1.3125 7.00008 1.3125C6.81458 1.3125 6.64716 1.42508 6.57658 1.59717L5.23025 4.85625L1.7355 5.14092C1.55 5.15667 1.3925 5.28267 1.33533 5.45942C1.27816 5.63617 1.333 5.83042 1.47358 5.95175L4.1365 8.24833L3.32275 11.6795C3.279 11.8603 3.34783 12.0493 3.49775 12.159C3.64766 12.2687 3.84891 12.2774 4.00758 12.1812L7.00008 10.3407Z" fill="#FAC020"/>
<path d="M7.00008 10.3407L9.99258 12.1812C10.1512 12.2774 10.3525 12.2687 10.5024 12.159C10.6523 12.0493 10.7212 11.8603 10.6774 11.6795L9.86366 8.246L12.5266 5.94883C12.6654 5.82692 12.7185 5.63442 12.6619 5.45883C12.6047 5.28267 12.449 5.15783 12.2647 5.14092L8.76991 4.85625L7.42358 1.59717C7.353 1.42508 7.18616 1.3125 7.00008 1.3125C6.81458 1.3125 6.64716 1.42508 6.57658 1.59717L5.23025 4.85625L1.7355 5.14092C1.55 5.15667 1.3925 5.28267 1.33533 5.45942C1.27816 5.63617 1.333 5.83042 1.47358 5.95175L4.1365 8.24833L3.32275 11.6795C3.279 11.8603 3.34783 12.0493 3.49775 12.159C3.64766 12.2687 3.84891 12.2774 4.00758 12.1812L7.00008 10.3407Z" stroke="#FAC020" stroke-width="0.875" stroke-linecap="round" stroke-linejoin="round"/>
</g>
<g clip-path="url(#clip1_4132_183)">
<path d="M23.0001 10.3407L25.9926 12.1812C26.1512 12.2774 26.3525 12.2687 26.5024 12.159C26.6523 12.0493 26.7212 11.8603 26.6774 11.6795L25.8637 8.246L28.5266 5.94883C28.6654 5.82692 28.7185 5.63442 28.6619 5.45883C28.6047 5.28267 28.449 5.15783 28.2647 5.14092L24.7699 4.85625L23.4236 1.59717C23.353 1.42508 23.1862 1.3125 23.0001 1.3125C22.8146 1.3125 22.6472 1.42508 22.5766 1.59717L21.2302 4.85625L17.7355 5.14092C17.55 5.15667 17.3925 5.28267 17.3353 5.45942C17.2782 5.63617 17.333 5.83042 17.4736 5.95175L20.1365 8.24833L19.3227 11.6795C19.279 11.8603 19.3478 12.0493 19.4977 12.159C19.6477 12.2687 19.8489 12.2774 20.0076 12.1812L23.0001 10.3407Z" fill="#FAC020"/>
<path d="M23.0001 10.3407L25.9926 12.1812C26.1512 12.2774 26.3525 12.2687 26.5024 12.159C26.6523 12.0493 26.7212 11.8603 26.6774 11.6795L25.8637 8.246L28.5266 5.94883C28.6654 5.82692 28.7185 5.63442 28.6619 5.45883C28.6047 5.28267 28.449 5.15783 28.2647 5.14092L24.7699 4.85625L23.4236 1.59717C23.353 1.42508 23.1862 1.3125 23.0001 1.3125C22.8146 1.3125 22.6472 1.42508 22.5766 1.59717L21.2302 4.85625L17.7355 5.14092C17.55 5.15667 17.3925 5.28267 17.3353 5.45942C17.2782 5.63617 17.333 5.83042 17.4736 5.95175L20.1365 8.24833L19.3227 11.6795C19.279 11.8603 19.3478 12.0493 19.4977 12.159C19.6477 12.2687 19.8489 12.2774 20.0076 12.1812L23.0001 10.3407Z" stroke="#FAC020" stroke-width="0.875" stroke-linecap="round" stroke-linejoin="round"/>
</g>
<g clip-path="url(#clip2_4132_183)">
<path d="M39.0001 10.3407L41.9926 12.1812C42.1512 12.2774 42.3525 12.2687 42.5024 12.159C42.6523 12.0493 42.7212 11.8603 42.6774 11.6795L41.8637 8.246L44.5266 5.94883C44.6654 5.82692 44.7185 5.63442 44.6619 5.45883C44.6047 5.28267 44.449 5.15783 44.2647 5.14092L40.7699 4.85625L39.4236 1.59717C39.353 1.42508 39.1862 1.3125 39.0001 1.3125C38.8146 1.3125 38.6472 1.42508 38.5766 1.59717L37.2302 4.85625L33.7355 5.14092C33.55 5.15667 33.3925 5.28267 33.3353 5.45942C33.2782 5.63617 33.333 5.83042 33.4736 5.95175L36.1365 8.24833L35.3227 11.6795C35.279 11.8603 35.3478 12.0493 35.4977 12.159C35.6477 12.2687 35.8489 12.2774 36.0076 12.1812L39.0001 10.3407Z" fill="#FAC020"/>
<path d="M39.0001 10.3407L41.9926 12.1812C42.1512 12.2774 42.3525 12.2687 42.5024 12.159C42.6523 12.0493 42.7212 11.8603 42.6774 11.6795L41.8637 8.246L44.5266 5.94883C44.6654 5.82692 44.7185 5.63442 44.6619 5.45883C44.6047 5.28267 44.449 5.15783 44.2647 5.14092L40.7699 4.85625L39.4236 1.59717C39.353 1.42508 39.1862 1.3125 39.0001 1.3125C38.8146 1.3125 38.6472 1.42508 38.5766 1.59717L37.2302 4.85625L33.7355 5.14092C33.55 5.15667 33.3925 5.28267 33.3353 5.45942C33.2782 5.63617 33.333 5.83042 33.4736 5.95175L36.1365 8.24833L35.3227 11.6795C35.279 11.8603 35.3478 12.0493 35.4977 12.159C35.6477 12.2687 35.8489 12.2774 36.0076 12.1812L39.0001 10.3407Z" stroke="#FAC020" stroke-width="0.875" stroke-linecap="round" stroke-linejoin="round"/>
</g>
<g clip-path="url(#clip3_4132_183)">
<path d="M55.0001 10.3407L57.9926 12.1812C58.1512 12.2774 58.3525 12.2687 58.5024 12.159C58.6523 12.0493 58.7212 11.8603 58.6774 11.6795L57.8637 8.246L60.5266 5.94883C60.6654 5.82692 60.7185 5.63442 60.6619 5.45883C60.6047 5.28267 60.449 5.15783 60.2647 5.14092L56.7699 4.85625L55.4236 1.59717C55.353 1.42508 55.1862 1.3125 55.0001 1.3125C54.8146 1.3125 54.6472 1.42508 54.5766 1.59717L53.2302 4.85625L49.7355 5.14092C49.55 5.15667 49.3925 5.28267 49.3353 5.45942C49.2782 5.63617 49.333 5.83042 49.4736 5.95175L52.1365 8.24833L51.3227 11.6795C51.279 11.8603 51.3478 12.0493 51.4977 12.159C51.6477 12.2687 51.8489 12.2774 52.0076 12.1812L55.0001 10.3407Z" fill="#FAC020"/>
<path d="M55.0001 10.3407L57.9926 12.1812C58.1512 12.2774 58.3525 12.2687 58.5024 12.159C58.6523 12.0493 58.7212 11.8603 58.6774 11.6795L57.8637 8.246L60.5266 5.94883C60.6654 5.82692 60.7185 5.63442 60.6619 5.45883C60.6047 5.28267 60.449 5.15783 60.2647 5.14092L56.7699 4.85625L55.4236 1.59717C55.353 1.42508 55.1862 1.3125 55.0001 1.3125C54.8146 1.3125 54.6472 1.42508 54.5766 1.59717L53.2302 4.85625L49.7355 5.14092C49.55 5.15667 49.3925 5.28267 49.3353 5.45942C49.2782 5.63617 49.333 5.83042 49.4736 5.95175L52.1365 8.24833L51.3227 11.6795C51.279 11.8603 51.3478 12.0493 51.4977 12.159C51.6477 12.2687 51.8489 12.2774 52.0076 12.1812L55.0001 10.3407Z" stroke="#FAC020" stroke-width="0.875" stroke-linecap="round" stroke-linejoin="round"/>
</g>
<g clip-path="url(#clip4_4132_183)">
<path d="M55.0001 10.3407L57.9926 12.1812C58.1512 12.2774 58.3525 12.2687 58.5024 12.159C58.6523 12.0493 58.7212 11.8603 58.6774 11.6795L57.8637 8.246L60.5266 5.94883C60.6654 5.82692 60.7185 5.63442 60.6619 5.45883C60.6047 5.28267 60.449 5.15783 60.2647 5.14092L56.7699 4.85625L55.4236 1.59717C55.353 1.42508 55.1862 1.3125 55.0001 1.3125C54.8146 1.3125 54.6472 1.42508 54.5766 1.59717L53.2302 4.85625L49.7355 5.14092C49.55 5.15667 49.3925 5.28267 49.3353 5.45942C49.2782 5.63617 49.333 5.83042 49.4736 5.95175L52.1365 8.24833L51.3227 11.6795C51.279 11.8603 51.3478 12.0493 51.4977 12.159C51.6477 12.2687 51.8489 12.2774 52.0076 12.1812L55.0001 10.3407Z" fill="#FAC020"/>
<path d="M55.0001 10.3407L57.9926 12.1812C58.1512 12.2774 58.3525 12.2687 58.5024 12.159C58.6523 12.0493 58.7212 11.8603 58.6774 11.6795L57.8637 8.246L60.5266 5.94883C60.6654 5.82692 60.7185 5.63442 60.6619 5.45883C60.6047 5.28267 60.449 5.15783 60.2647 5.14092L56.7699 4.85625L55.4236 1.59717C55.353 1.42508 55.1862 1.3125 55.0001 1.3125C54.8146 1.3125 54.6472 1.42508 54.5766 1.59717L53.2302 4.85625L49.7355 5.14092C49.55 5.15667 49.3925 5.28267 49.3353 5.45942C49.2782 5.63617 49.333 5.83042 49.4736 5.95175L52.1365 8.24833L51.3227 11.6795C51.279 11.8603 51.3478 12.0493 51.4977 12.159C51.6477 12.2687 51.8489 12.2774 52.0076 12.1812L55.0001 10.3407Z" stroke="#FAC020" stroke-width="0.875" stroke-linecap="round" stroke-linejoin="round"/>
</g>
<g clip-path="url(#clip5_4132_183)">
<path d="M71.0001 10.3407L73.9926 12.1812C74.1512 12.2774 74.3525 12.2687 74.5024 12.159C74.6523 12.0493 74.7212 11.8603 74.6774 11.6795L73.8637 8.246L76.5266 5.94883C76.6654 5.82692 76.7185 5.63442 76.6619 5.45883C76.6047 5.28267 76.449 5.15783 76.2647 5.14092L72.7699 4.85625L71.4236 1.59717C71.353 1.42508 71.1862 1.3125 71.0001 1.3125C70.8146 1.3125 70.6472 1.42508 70.5766 1.59717L69.2302 4.85625L65.7355 5.14092C65.55 5.15667 65.3925 5.28267 65.3353 5.45942C65.2782 5.63617 65.333 5.83042 65.4736 5.95175L68.1365 8.24833L67.3227 11.6795C67.279 11.8603 67.3478 12.0493 67.4977 12.159C67.6477 12.2687 67.8489 12.2774 68.0076 12.1812L71.0001 10.3407Z" fill="#FAC020"/>
<path d="M71.0001 10.3407L73.9926 12.1812C74.1512 12.2774 74.3525 12.2687 74.5024 12.159C74.6523 12.0493 74.7212 11.8603 74.6774 11.6795L73.8637 8.246L76.5266 5.94883C76.6654 5.82692 76.7185 5.63442 76.6619 5.45883C76.6047 5.28267 76.449 5.15783 76.2647 5.14092L72.7699 4.85625L71.4236 1.59717C71.353 1.42508 71.1862 1.3125 71.0001 1.3125C70.8146 1.3125 70.6472 1.42508 70.5766 1.59717L69.2302 4.85625L65.7355 5.14092C65.55 5.15667 65.3925 5.28267 65.3353 5.45942C65.2782 5.63617 65.333 5.83042 65.4736 5.95175L68.1365 8.24833L67.3227 11.6795C67.279 11.8603 67.3478 12.0493 67.4977 12.159C67.6477 12.2687 67.8489 12.2774 68.0076 12.1812L71.0001 10.3407Z" stroke="#FAC020" stroke-width="0.875" stroke-linecap="round" stroke-linejoin="round"/>
</g>
<defs>
<clipPath id="clip0_4132_183">
<rect width="14" height="14" fill="white"/>
</clipPath>
<clipPath id="clip1_4132_183">
<rect width="14" height="14" fill="white" transform="translate(16)"/>
</clipPath>
<clipPath id="clip2_4132_183">
<rect width="14" height="14" fill="white" transform="translate(32)"/>
</clipPath>
<clipPath id="clip3_4132_183">
<rect width="14" height="14" fill="white" transform="translate(48)"/>
</clipPath>
<clipPath id="clip4_4132_183">
<rect width="14" height="14" fill="white" transform="translate(48)"/>
</clipPath>
<clipPath id="clip5_4132_183">
<rect width="14" height="14" fill="white" transform="translate(64)"/>
</clipPath>
</defs>
</svg>
